#!OML:ASF I:\Actors\actors\Patient Classification 1\Patient 1\Session 1\Subject1.ASF
:FULLY-SPECIFIED
:DEGREES
725
root 1.01676 17.5136 9.18294 7.33442 5.29164 -8.26571
lowerback 1.191 2.70819 5.19539
upperback -6.34413 3.93983 0.453642
thorax -6.98922 1.6706 -2.69969
lowerneck -16.7383 1.75043 2.62628
upperneck 22.6995 -0.140623 7.4858
head 10.0385 1.07022 2.18439
rclavicle -1.92821e-014 -6.36111e-015
rhumerus -33.7182 -1.49437 -78.7361
rradius 133.776
rwrist -48.2958
rhand 2.22042 -59.8919
rfingers 7.12502
rthumb 27.7154 -447.869
lclavicle -1.92821e-014 -6.36111e-015
lhumerus -23.0001 -48.8092 88.2259
lradius 138.189
lwrist 54.1286
lhand 51.5435 -9.76948
lfingers 7.12502
lthumb 70.9277 -17.2476
rfemur -1.94507 23.21 24.8576
rtibia 4.1268
rfoot -16.2512 -30.7812
rtoes 8.98624
lfemur 3.66759 -41.6385 -12.7466
ltibia -4.75202
lfoot -12.0115 45.4448
ltoes 3.44604
726
root 1.02088 17.513 9.18844 7.3414 5.19338 -8.26006
lowerback 1.00708 2.68521 5.12115
upperback -6.425 3.89841 0.483294
thorax -6.97924 1.65479 -2.61723
lowerneck -16.7934 1.01861 1.7522
upperneck 21.6504 -1.0438 8.22952
head 9.70778 0.630583 2.44682
rclavicle -2.5345e-015 3.10104e-014
rhumerus -32.2132 -0.912472 -78.5883
rradius 133.661
rwrist -48.4211
rhand 1.9861 -60.2084
rfingers 7.12502
rthumb 27.4913 -448.222
lclavicle -2.5345e-015 3.10104e-014
lhumerus -23.4383 -48.6241 88.5248
lradius 138.201
lwrist 53.4345
lhand 50.9331 -10.5982
lfingers 7.12502
lthumb 70.5502 -16.7038
rfemur -1.92387 23.2225 24.8375
rtibia 4.09085
rfoot -16.1378 -30.7354
rtoes 8.74502
lfemur 3.79794 -41.7632 -12.8643
ltibia -4.783
lfoot -12.1609 45.6265
ltoes 3.64482
727
root 1.02416 17.5125 9.1935 7.33651 5.05984 -8.33594
lowerback 0.902749 2.69244 5.16185
upperback -6.53819 3.90992 0.513672
thorax -7.03999 1.65576 -2.60641
lowerneck -17.0004 0.27369 1.2256
upperneck 21.0791 -1.97961 8.5034
head 9.58796 0.168326 2.49667
rclavicle -4.87022e-014 -8.74653e-015
rhumerus -30.7052 -0.362981 -78.4281
rradius 133.491
rwrist -48.6495
rhand 1.79176 -60.3061
rfingers 7.12502
rthumb 27.3054 -448.349
lclavicle -4.87022e-014 -8.74653e-015
lhumerus -23.8423 -48.4201 88.7761
lradius 138.227
lwrist 53.0139
lhand 50.5539 -11.3245
lfingers 7.12502
lthumb 70.3099 -16.6046
rfemur -1.92123 23.2657 24.9121
rtibia 4.10331
rfoot -16.0733 -30.6622
rtoes 8.56887
lfemur 3.94493 -41.9106 -12.8885
ltibia -4.84187
lfoot -12.3165 45.9278
ltoes 3.69384
728
root 1.02701 17.5123 9.19584 7.34495 4.90459 -8.4423
lowerback 0.882996 2.69556 5.23533
upperback -6.69437 3.9256 0.550875
thorax -7.19496 1.65331 -2.613
lowerneck -16.9816 -0.464763 0.633327
upperneck 20.2702 -2.91933 9.06169
head 9.35956 -0.282528 2.64991
rclavicle 3.61291e-014 -1.82882e-014
rhumerus -29.2639 0.262537 -78.3176
rradius 133.306
rwrist -48.7535
rhand 1.72091 -60.322
rfingers 7.12502
rthumb 27.2376 -448.375
lclavicle 3.61291e-014 -1.82882e-014
lhumerus -24.2861 -48.1586 88.9989
lradius 138.301
lwrist 52.8211
lhand 50.2876 -11.4288
lfingers 7.12502
lthumb 70.1388 -16.1416
rfemur -1.96252 23.3122 25.0073
rtibia 4.13914
rfoot -16.0345 -30.5687
rtoes 8.52402
lfemur 3.97609 -41.8029 -12.7932
ltibia -4.85572
lfoot -12.3329 46.0236
ltoes 3.61914
729
root 1.03225 17.512 9.1975 7.36336 4.77491 -8.47239
lowerback 0.859406 2.68252 5.28938
upperback -6.85296 3.91615 0.549008
thorax -7.35099 1.63801 -2.64802
lowerneck -16.62 -1.2033 0.29011
upperneck 19.0737 -3.7893 9.26724
head 8.93203 -0.746158 2.6408
rclavicle -1.07841e-014 -7.15625e-015
rhumerus -27.8038 0.908466 -78.2527
rradius 133.136
rwrist -48.8755
rhand 1.70346 -60.503
rfingers 7.12502
rthumb 27.221 -448.559
lclavicle -1.07841e-014 -7.15625e-015
lhumerus -24.7699 -47.8454 89.2021
lradius 138.393
lwrist 52.5459
lhand 50.1417 -11.3441
lfingers 7.12502
lthumb 70.0441 -15.7504
rfemur -1.9972 23.274 25.0023
rtibia 4.14947
rfoot -15.9359 -30.4277
rtoes 8.26078
lfemur 4.00718 -41.7178 -12.808
ltibia -4.86022
lfoot -12.238 46.0647
ltoes 3.52561
730
root 1.03769 17.5119 9.20085 7.35957 4.64134 -8.41513
lowerback 0.867657 2.65095 5.27411
upperback -7.02823 3.87961 0.520585
thorax -7.54817 1.6109 -2.67313
lowerneck -16.1311 -1.88515 -0.0837845
upperneck 17.8878 -4.56032 9.45936
head 8.4911 -1.17339 2.65252
rclavicle -2.41523e-014 -2.06736e-014
rhumerus -26.2634 1.60816 -78.2554
rradius 133.015
rwrist -49.0464
rhand 1.68491 -60.8184
rfingers 7.12502
rthumb 27.2032 -448.877
lclavicle -2.41523e-014 -2.06736e-014
lhumerus -25.4063 -47.4378 89.4945
lradius 138.474
lwrist 52.1479
lhand 49.6833 -11.4917
lfingers 7.12502
lthumb 69.743 -14.9537
rfemur -1.97973 23.2596 24.9123
rtibia 4.1394
rfoot -15.8581 -30.2989
rtoes 8.04245
lfemur 4.17065 -41.9883 -13.0554
ltibia -4.82682
lfoot -12.5742 46.3743
ltoes 4.0704
731
root 1.04125 17.5118 9.20507 7.35736 4.48875 -8.31029
lowerback 0.869212 2.60797 5.16477
upperback -7.1929 3.82395 0.523988
thorax -7.73898 1.58196 -2.61076
lowerneck -15.72 -2.53797 -0.780012
upperneck 16.8618 -5.2965 9.98919
head 8.14542 -1.56583 2.8451
rclavicle -2.0276e-014 0
rhumerus -24.7084 2.40637 -78.313
rradius 132.988
rwrist -49.1347
rhand 1.53041 -61.0635
rfingers 7.12502
rthumb 27.0554 -449.145
lclavicle -2.0276e-014 0
lhumerus -26.1602 -46.892 89.8752
lradius 138.561
lwrist 51.5471
lhand 48.6058 -11.8703
lfingers 7.12502
lthumb 69.0136 -13.2241
rfemur -1.95686 23.346 24.775
rtibia 4.11939
rfoot -15.8493 -30.247
rtoes 8.21725
lfemur 4.36608 -42.4383 -13.3959
ltibia -4.75217
lfoot -13.1279 46.8604
ltoes 4.83946
732
root 1.0432 17.5114 9.20756 7.37883 4.34664 -8.27495
lowerback 0.852415 2.56789 5.11126
upperback -7.33918 3.776 0.573167
thorax -7.89892 1.55651 -2.52997
lowerneck -15.2765 -3.15995 -1.50317
upperneck 15.8182 -5.98475 10.5472
head 7.80082 -1.93799 3.06037
rclavicle -3.23025e-015 -1.59028e-015
rhumerus -23.1838 3.23739 -78.4039
rradius 132.974
rwrist -49.1435
rhand 1.21404 -61.2634
rfingers 7.12502
rthumb 26.7527 -449.392
lclavicle -3.23025e-015 -1.59028e-015
lhumerus -26.9339 -46.1784 90.2553
lradius 138.643
lwrist 50.617
lhand 47.1384 -12.6676
lfingers 7.12502
lthumb 67.9763 -11.386
rfemur -1.99255 23.4544 24.7063
rtibia 4.12397
rfoot -15.8314 -30.2273
rtoes 8.48444
lfemur 4.43815 -42.6387 -13.5184
ltibia -4.72262
lfoot -13.4406 47.1391
ltoes 5.2621
733
root 1.04487 17.5117 9.20898 7.39696 4.1908 -8.3249
lowerback 0.801196 2.52441 5.16612
upperback -7.46077 3.72776 0.653456
thorax -8.00861 1.52701 -2.47367
lowerneck -14.7278 -3.7227 -2.17416
upperneck 14.7578 -6.58911 11.0521
head 7.436 -2.27773 3.2628
rclavicle -8.24956e-015 2.14687e-014
rhumerus -21.6551 4.10354 -78.5358
rradius 132.882
rwrist -49.2171
rhand 0.895948 -61.5637
rfingers 7.12502
rthumb 26.4483 -449.738
lclavicle -8.24956e-015 2.14687e-014
lhumerus -27.737 -45.1556 90.5875
lradius 138.648
lwrist 49.5071
lhand 45.6086 -13.7351
lfingers 7.12502
lthumb 66.8477 -9.96985
rfemur -2.04657 23.5301 24.7378
rtibia 4.15519
rfoot -15.7405 -30.1664
rtoes 8.32287
lfemur 4.46639 -42.5986 -13.4669
ltibia -4.76371
lfoot -13.5838 47.2372
ltoes 5.52589
734
root 1.04888 17.5119 9.2144 7.42473 3.99142 -8.3168
lowerback 0.645247 2.48194 5.19567
upperback -7.55612 3.6698 0.716308
thorax -8.02904 1.497 -2.4146
lowerneck -14.194 -4.24787 -2.73901
upperneck 13.8019 -7.14595 11.3817
head 7.10459 -2.60123 3.39927
rclavicle -9.14409e-015 3.65764e-014
rhumerus -20.155 4.98045 -78.7431
rradius 132.743
rwrist -49.558
rhand 0.377323 -61.8632
rfingers 7.12502
rthumb 25.9517 -269.888
lclavicle -9.14409e-015 3.65764e-014
lhumerus -28.6278 -43.7947 90.8992
lradius 138.499
lwrist 48.3501
lhand 44.024 -14.8849
lfingers 7.12502
lthumb 65.6349 -8.80184
rfemur -2.07948 23.5327 24.6928
rtibia 4.16317
rfoot -15.6275 -30.0149
rtoes 7.79947
lfemur 4.58129 -42.6177 -13.5702
ltibia -4.80484
lfoot -13.8394 47.4155
ltoes 5.89563
735
root 1.05404 17.5107 9.22317 7.46529 3.77138 -8.26473
lowerback 0.405884 2.46144 5.21198
upperback -7.62204 3.63039 0.736088
thorax -7.96462 1.47849 -2.38963
lowerneck -13.7278 -4.70719 -3.06458
upperneck 12.952 -7.63884 11.4975
head 6.80414 -2.89357 3.43671
rclavicle -2.51463e-014 2.38542e-015
rhumerus -18.6868 5.76122 -79.0372
rradius 132.565
rwrist -50.0167
rhand -0.12745 -62.257
rfingers 7.12502
rthumb 25.4683 -269.425
lclavicle -2.51463e-014 2.38542e-015
lhumerus -29.5478 -42.2026 91.1621
lradius 138.208
lwrist 47.241
lhand 41.9413 -15.8365
lfingers 7.12502
lthumb 63.9836 -7.05327
rfemur -2.10013 23.5575 24.5911
rtibia 4.15101
rfoot -15.5719 -29.8748
rtoes 7.44602
lfemur 4.7057 -42.6491 -13.7604
ltibia -4.78496
lfoot -14.1778 47.6014
ltoes 6.23326
736
root 1.05791 17.5095 9.23064 7.47613 3.5726 -8.21897
lowerback 0.196702 2.46325 5.2644
upperback -7.67756 3.62193 0.723198
thorax -7.90034 1.47163 -2.42232
lowerneck -13.1589 -5.11644 -3.47183
upperneck 12.0917 -8.0814 11.8193
head 6.4965 -3.1532 3.56528
rclavicle -1.82882e-014 3.97569e-015
rhumerus -17.3507 6.40758 -79.3777
rradius 132.337
rwrist -50.3794
rhand -0.308466 -62.772
rfingers 7.12502
rthumb 25.2949 -268.885
lclavicle -1.82882e-014 3.97569e-015
lhumerus -30.5495 -40.3801 91.4286
lradius 137.797
lwrist 46.0807
lhand 39.5027 -16.4516
lfingers 7.12502
lthumb 61.9817 -4.93497
rfemur -2.08543 23.6738 24.5232
rtibia 4.1431
rfoot -15.5532 -29.8265
rtoes 7.50335
lfemur 4.75909 -42.4557 -13.8832
ltibia -4.7288
lfoot -14.3292 47.5816
ltoes 6.3509
737
root 1.06176 17.5081 9.23789 7.46523 3.35825 -8.17114
lowerback 0.0275767 2.4651 5.31435
upperback -7.74495 3.61831 0.736122
thorax -7.87408 1.46691 -2.42925
lowerneck -12.4421 -5.49727 -4.07312
upperneck 11.1897 -8.46951 12.2828
head 6.16638 -3.39263 3.78269
rclavicle -5.06901e-015 -1.51076e-014
rhumerus -16.2305 7.08567 -79.7326
rradius 132.064
rwrist -50.5399
rhand -0.346752 -63.0617
rfingers 7.12502
rthumb 25.2582 -268.59
lclavicle -5.06901e-015 -1.51076e-014
lhumerus -31.6944 -38.1887 91.8093
lradius 137.24
lwrist 44.7507
lhand 36.7603 -16.694
lfingers 7.12502
lthumb 59.6597 -2.56134
rfemur -2.05764 23.7659 24.4585
rtibia 4.15248
rfoot -15.4974 -29.7366
rtoes 7.56607
lfemur 4.84587 -42.2106 -14.0217
ltibia -4.68531
lfoot -14.5925 47.5033
ltoes 6.7232
